# xmcd
#
# Track frame offsets: 
#        150
#        14223
#        27039
#        40285
#        53778
#        73845
#        95526
#        107600
#        121818
#        137818
#        152975
#        168275
#
# Disc length: 2449 seconds
#
# Revision: 0
# Processed by: cddbd v1.5.2PL0 Copyright (c) Steve Scherf et al.
# Submitted via: ExactAudioCopy v1.0b3
#
DISCID=a2098f0c
DTITLE=Heavenbound - We Are Heavenbound Bluegrass Band
DYEAR=1900
DGENRE=Bluegrass
TTITLE0=I'm Using My Bible for a Road Map
TTITLE1=This Little Light of Mine
TTITLE2=The Old Crossroad
TTITLE3=Heaven
TTITLE4=Mother's Only Sleeping
TTITLE5=Dreaming of a Little Cabin
TTITLE6=Hallelujah I'm Ready
TTITLE7=House of Gold
TTITLE8=Prayer Bells of Heaven
TTITLE9=Rank Strangers to Me
TTITLE10=Why did I Wait so Long
TTITLE11=What a Day
EXTD=
EXTT0=
EXTT1=
EXTT2=
EXTT3=
EXTT4=
EXTT5=
EXTT6=
EXTT7=
EXTT8=
EXTT9=
EXTT10=
EXTT11=
PLAYORDER=
